HIERARCHY
ROOT Hips
{
	OFFSET 40.843800 -3.744215 95.364197
	CHANNELS 6 Xposition Yposition Zposition Xrotation Yrotation Zrotation
	JOINT spine
	{
		OFFSET 0.000000 -0.467660 8.132492
		CHANNELS 3 Xrotation Yrotation Zrotation
		JOINT spine1
		{
			OFFSET 0.000000 -0.000002 10.349800
			CHANNELS 3 Xrotation Yrotation Zrotation
			JOINT spine2
			{
				OFFSET 0.000000 -0.000001 9.916992
				CHANNELS 3 Xrotation Yrotation Zrotation
				JOINT Neck
				{
					OFFSET 0.000000 -1.213904 25.461006
					CHANNELS 3 Xrotation Yrotation Zrotation
					JOINT Head
					{
						OFFSET 0.000000 -0.000001 7.692444
						CHANNELS 3 Xrotation Yrotation Zrotation
						End Site
						{
							OFFSET 0.000000 6.140627 18.619995
						}
					}
				}
				JOINT RightShoulder
				{
					OFFSET -4.175751 0.581443 10.709602
					CHANNELS 3 Xrotation Yrotation Zrotation
					JOINT RightArm
					{
						OFFSET 0.000000 -0.000002 14.046600
						CHANNELS 3 Xrotation Yrotation Zrotation
						JOINT RightArmRoll
						{
							OFFSET 0.000000 -0.000001 7.090973
							CHANNELS 3 Xrotation Yrotation Zrotation
							JOINT RightForeArm
							{
								OFFSET 0.000000 -0.000003 20.653503
								CHANNELS 3 Xrotation Yrotation Zrotation
								JOINT RightForeArmRoll
								{
									OFFSET 0.000000 -0.000001 7.957184
									CHANNELS 3 Xrotation Yrotation Zrotation
									JOINT RightHand
									{
										OFFSET 0.000000 -0.000003 15.968292
										CHANNELS 3 Xrotation Yrotation Zrotation
										End Site
										{
											OFFSET 0.000000 0.000000 0.100006
										}
									}
								}
							}
						}
					}
				}
				JOINT LeftShoulder
				{
					OFFSET 4.175751 0.581443 10.709602
					CHANNELS 3 Xrotation Yrotation Zrotation
					JOINT LeftArm
					{
						OFFSET 0.000000 -0.000002 14.046600
						CHANNELS 3 Xrotation Yrotation Zrotation
						JOINT LeftArmRoll
						{
							OFFSET 0.000000 -0.000001 7.090973
							CHANNELS 3 Xrotation Yrotation Zrotation
							JOINT LeftForeArm
							{
								OFFSET 0.000000 -0.000003 20.653503
								CHANNELS 3 Xrotation Yrotation Zrotation
								JOINT LeftForeArmRoll
								{
									OFFSET 0.000000 -0.000001 7.957184
									CHANNELS 3 Xrotation Yrotation Zrotation
									JOINT LeftHand
									{
										OFFSET 0.000000 -0.000003 15.968292
										CHANNELS 3 Xrotation Yrotation Zrotation
										End Site
										{
											OFFSET 0.000000 0.000000 0.100006
										}
									}
								}
							}
						}
					}
				}
			}
		}
	}
	JOINT RightUpLeg
	{
		OFFSET -7.208340 1.108840 -1.321823
		CHANNELS 3 Xrotation Yrotation Zrotation
		JOINT RightUpLegRoll
		{
			OFFSET 0.000000 -0.000003 18.723801
			CHANNELS 3 Xrotation Yrotation Zrotation
			JOINT RightLeg
			{
				OFFSET 0.000000 0.000004 -23.186600
				CHANNELS 3 Xrotation Yrotation Zrotation
				JOINT RightLegRoll
				{
					OFFSET 0.000000 -0.000004 23.262398
					CHANNELS 3 Xrotation Yrotation Zrotation
					JOINT RightFoot
					{
						OFFSET 0.000000 -0.000003 19.362099
						CHANNELS 3 Xrotation Yrotation Zrotation
						JOINT RightToeBase
						{
							OFFSET 0.000000 -0.000003 16.185699
							CHANNELS 3 Xrotation Yrotation Zrotation
							End Site
							{
								OFFSET 0.006859 0.903521 7.838623
							}
						}
					}
				}
			}
		}
	}
	JOINT LeftUpLeg
	{
		OFFSET 7.208340 1.108840 -1.321823
		CHANNELS 3 Xrotation Yrotation Zrotation
		JOINT LeftUpLegRoll
		{
			OFFSET 0.000000 -0.000003 18.723900
			CHANNELS 3 Xrotation Yrotation Zrotation
			JOINT LeftLeg
			{
				OFFSET 0.000000 -0.000004 23.186501
				CHANNELS 3 Xrotation Yrotation Zrotation
				JOINT LeftLegRoll
				{
					OFFSET 0.000000 -0.000004 23.477493
					CHANNELS 3 Xrotation Yrotation Zrotation
					JOINT LeftFoot
					{
						OFFSET 0.000000 -0.000003 19.147003
						CHANNELS 3 Xrotation Yrotation Zrotation
						JOINT LeftToeBase
						{
							OFFSET 0.000000 -0.000003 16.185699
							CHANNELS 3 Xrotation Yrotation Zrotation
							End Site
							{
								OFFSET -0.030746 0.903521 7.838623
							}
						}
					}
				}
			}
		}
	}
}
MOTION
Frames: 9
Frame Time: 0.041667
51.987701 -4.155908 96.080200 -4.575948 1.295150 -1.535260 -0.869415 -0.494717 0.110981 2.264993 -0.981426 0.218951 3.910161 -0.970353 0.230671 8.853145 3.573903 -4.415915 1.512732 -3.561200 -4.337266 -18.714167 -57.513444 -22.119971 -45.229058 -120.749220 -25.406292 0.000007 -0.000018 0.000000 0.067303 -8.376096 -0.644686 -0.000004 0.000004 -3.008179 -5.000223 -7.998943 0.000121 -13.990270 61.561622 16.609835 -47.194483 118.339407 38.955677 -0.000002 -0.000023 0.000004 0.081479 10.096391 1.056449 0.000000 -0.000006 3.053580 -5.000231 7.998794 -0.000139 -1.794132 -173.683077 3.342202 -179.999991 0.000006 -1.014005 169.574199 -1.728016 -0.636909 -0.000002 0.000001 -0.007096 68.219062 6.176467 4.013146 25.458268 -7.355616 0.002036 -1.006758 174.657814 -0.445396 -0.000020 -0.000005 -0.985698 -14.504590 0.512774 0.732755 -0.000002 0.000003 -0.248856 73.045253 -6.076147 -4.179168 25.456911 7.348366 -0.000005 
51.989201 -4.149217 96.077003 -4.588070 1.299763 -1.500675 -0.866452 -0.495802 0.110083 2.270915 -0.984196 0.217200 3.916086 -0.973748 0.228955 8.840863 3.556412 -4.425655 1.512994 -3.556252 -4.346719 -18.738154 -57.524092 -22.148610 -45.242299 -120.730410 -25.430234 0.000007 -0.000018 0.000002 0.066757 -8.386636 -0.642330 -0.000002 0.000005 -3.008179 -5.000223 -7.998944 0.000124 -13.957034 61.562032 16.571070 -47.200077 118.350991 38.970150 0.000001 -0.000023 0.000004 0.081478 10.098192 1.056276 0.000002 -0.000006 3.053580 -5.000233 7.998794 -0.000140 -1.774412 -173.695003 3.339610 -179.999991 0.000005 -1.015002 169.570620 -1.726021 -0.636654 -0.000002 0.000001 -0.006721 68.221357 6.179552 4.004313 25.458268 -7.355616 0.002036 -1.011852 174.649836 -0.446319 -0.000020 -0.000004 -0.985698 -14.526276 0.505723 0.732367 -0.000004 0.000003 -0.248878 73.049946 -6.074953 -4.182534 25.456912 7.348367 -0.000004 
51.980804 -4.170084 96.074600 -4.600486 1.304395 -1.466479 -0.863419 -0.496883 0.109166 2.276967 -0.986981 0.215413 3.922142 -0.977181 0.227201 8.828093 3.539388 -4.435186 1.513688 -3.551612 -4.355959 -18.761753 -57.534508 -22.176798 -45.256444 -120.710780 -25.455811 0.000006 -0.000017 0.000001 0.065944 -8.397477 -0.639955 -0.000007 0.000005 -3.008180 -5.000224 -7.998944 0.000120 -13.924163 61.562394 16.532748 -47.204015 118.363094 38.982963 0.000002 -0.000022 0.000006 0.081482 10.100091 1.056063 0.000004 -0.000006 3.053580 -5.000232 7.998794 -0.000140 -1.754543 -173.705917 3.336837 -179.999991 0.000005 -1.016996 169.566618 -1.724038 -0.635403 -0.000002 0.000001 -0.006379 68.223898 6.182412 3.995921 25.458268 -7.355617 0.002036 -1.016666 174.641845 -0.447291 -0.000020 -0.000004 -0.985698 -14.548462 0.498730 0.731963 -0.000003 0.000003 -0.248911 73.055150 -6.073709 -4.185865 25.456909 7.348366 -0.000004 
51.977406 -4.168316 96.074692 -4.613096 1.309027 -1.432546 -0.860339 -0.497962 0.108236 2.283121 -0.989779 0.213600 3.928306 -0.980643 0.225424 8.815008 3.522693 -4.444585 1.514674 -3.547192 -4.365055 -18.785139 -57.544836 -22.204721 -45.269421 -120.691861 -25.480318 0.000007 -0.000018 0.000001 0.064947 -8.408526 -0.637573 -0.000007 0.000004 -3.008179 -5.000223 -7.998944 0.000122 -13.891606 61.562824 16.494786 -47.208994 118.374405 38.997149 0.000001 -0.000022 0.000005 0.081478 10.102091 1.055811 0.000002 -0.000006 3.053579 -5.000235 7.998794 -0.000139 -1.734577 -173.716873 3.333948 -179.999991 0.000006 -1.017993 169.562438 -1.722039 -0.634168 -0.000002 0.000000 -0.006058 68.226623 6.185146 3.987896 25.458267 -7.355616 0.002036 -1.021300 174.633867 -0.448297 -0.000020 -0.000005 -0.985698 -14.570947 0.491777 0.731545 -0.000003 0.000004 -0.248951 73.060601 -6.072517 -4.189291 25.456907 7.348366 -0.000004 
51.971703 -4.171487 96.077789 -4.625818 1.313659 -1.398769 -0.857231 -0.499040 0.107299 2.289333 -0.992584 0.211774 3.934512 -0.984121 0.223632 8.801737 3.506185 -4.453909 1.515829 -3.542892 -4.374066 -18.808399 -57.555094 -22.232488 -45.282426 -120.672927 -25.505161 0.000007 -0.000019 0.000001 0.063839 -8.419707 -0.635186 -0.000006 0.000005 -3.008179 -5.000223 -7.998944 0.000124 -13.859168 61.563227 16.456969 -47.213970 118.385702 39.011414 0.000000 -0.000022 0.000005 0.081482 10.104193 1.055558 0.000002 -0.000006 3.053571 -5.000234 7.998794 -0.000140 -1.714538 -173.728785 3.331018 -179.999991 0.000006 -1.019005 169.558135 -1.720053 -0.632938 -0.000002 -0.000000 -0.005750 68.229519 6.187751 3.980037 25.458268 -7.355616 0.002036 -1.025822 174.625862 -0.449321 -0.000020 -0.000004 -0.985698 -14.593631 0.484848 0.731119 -0.000004 0.000003 -0.248996 73.066242 -6.071318 -4.192604 25.456912 7.348365 -0.000004 
51.982605 -4.176359 96.079201 -4.638567 1.318279 -1.365020 -0.854114 -0.500119 0.106360 2.295556 -0.995392 0.209945 3.940737 -0.987603 0.221839 8.788426 3.489727 -4.463215 1.517034 -3.538632 -4.383056 -18.831619 -57.565340 -22.260227 -45.294242 -120.654704 -25.528614 0.000004 -0.000018 0.000001 0.062706 -8.430917 -0.632800 -0.000005 0.000004 -3.008179 -5.000226 -7.998944 0.000124 -13.826792 61.563616 16.419228 -47.218788 118.396931 39.025546 -0.000000 -0.000023 0.000004 0.081479 10.106291 1.055295 0.000002 -0.000006 3.053571 -5.000232 7.998793 -0.000140 -1.694491 -173.739713 3.328040 -179.999991 0.000005 -1.020002 169.553763 -1.717074 -0.632526 -0.000002 0.000000 -0.005444 68.232415 6.190358 3.972277 25.458270 -7.355617 0.002037 -1.030317 174.616873 -0.450331 -0.000020 -0.000004 -0.985698 -14.616320 0.477925 0.730686 -0.000003 0.000003 -0.249042 73.071891 -6.070114 -4.196021 25.456916 7.348367 -0.000004 
51.987904 -4.188005 96.065598 -4.651263 1.322881 -1.331201 -0.851014 -0.501198 0.105424 2.301749 -0.998196 0.208123 3.946932 -0.991077 0.220053 8.775204 3.473177 -4.472571 1.518148 -3.534301 -4.392090 -18.854935 -57.575585 -22.288063 -45.307291 -120.635785 -25.553276 0.000005 -0.000016 0.000002 0.061625 -8.442066 -0.630417 -0.000004 0.000004 -3.008180 -5.000226 -7.998943 0.000121 -13.794294 61.563917 16.381346 -47.223614 118.408159 39.039637 0.000000 -0.000023 0.000004 0.081481 10.108393 1.055033 0.000002 -0.000006 3.053570 -5.000232 7.998794 -0.000139 -1.674476 -173.750655 3.325082 -179.999991 0.000006 -1.020999 169.549460 -1.715089 -0.631295 -0.000001 0.000001 -0.005133 68.235209 6.192985 3.964427 25.458273 -7.355617 0.002037 -1.034860 174.608868 -0.451349 -0.000020 -0.000004 -0.985698 -14.639004 0.470990 0.730251 -0.000003 0.000003 -0.249086 73.077539 -6.068915 -4.199339 25.456912 7.348365 -0.000004 
51.979599 -4.191386 96.067703 -4.663814 1.327451 -1.297187 -0.847950 -0.502278 0.104499 2.307882 -1.000987 0.206321 3.953057 -0.994533 0.218285 8.762215 3.456405 -4.482046 1.519046 -3.529822 -4.401222 -18.878417 -57.585878 -22.316099 -45.320494 -120.616920 -25.577995 0.000005 -0.000017 0.000003 0.060678 -8.453057 -0.628040 -0.000004 0.000005 -3.008178 -5.000223 -7.998942 0.000122 -13.761631 61.564327 16.343270 -47.227384 118.420208 39.052389 0.000002 -0.000022 0.000004 0.081480 10.110391 1.054799 0.000001 -0.000006 3.053571 -5.000233 7.998794 -0.000139 -1.654544 -173.762581 3.322217 -179.999991 0.000006 -1.021996 169.545280 -1.713092 -0.630059 -0.000002 0.000000 -0.004805 68.237845 6.195778 3.956318 25.458270 -7.355617 0.002036 -1.039547 174.600891 -0.452339 -0.000020 -0.000005 -0.985698 -14.661392 0.464026 0.729815 -0.000003 0.000003 -0.249124 73.082874 -6.067726 -4.202770 25.456911 7.348367 -0.000005 
51.983200 -4.194705 96.074799 -4.676125 1.331983 -1.262859 -0.844937 -0.503360 0.103588 2.313895 -1.003771 0.204548 3.959082 -0.997953 0.216548 8.749602 3.439274 -4.491697 1.519606 -3.525092 -4.410533 -18.902231 -57.596342 -22.344527 -45.334766 -120.597303 -25.603480 0.000006 -0.000018 0.000000 0.059946 -8.463806 -0.625673 -0.000007 0.000004 -3.008182 -5.000223 -7.998944 0.000123 -13.728653 61.564655 16.304824 -47.232653 118.431642 39.066677 -0.000000 -0.000023 0.000006 0.081481 10.112291 1.054595 0.000002 -0.000006 3.053571 -5.000234 7.998794 -0.000140 -1.634720 -173.773523 3.319442 -179.999991 0.000006 -1.022993 169.541483 -1.711110 -0.628799 -0.000002 0.000001 -0.004453 68.240413 6.198671 3.947831 25.458265 -7.355616 0.002037 -1.044451 174.592886 -0.453288 -0.000020 -0.000005 -0.985698 -14.683377 0.457019 0.729381 -0.000003 0.000003 -0.249154 73.087880 -6.066513 -4.206219 25.456909 7.348367 -0.000004 
